<svg id="Layer_1" data-name="Layer 1" xmlns="http://www.w3.org/2000/svg" viewBox="0 0 512 512"><title>map-pointer-location-flag-glyph</title><path d="M180.25,0h6.12c20.25,0,36.33,16.08,36.33,34.09h0a35.44,35.44,0,0,1-14.14,28.3V397.19c30.22,1.93,58.52,5.79,78.78,13.83,26.06,10.29,44.38,26.37,44.38,42.45,0,18-18.32,32.16-44.38,44.38-24.28,8-60.63,14.15-97,14.15-38.27,0-72.69-6.11-97-14.15C65.27,485.63,49,471.48,49,453.47c0-16.08,16.23-32.17,44.38-42.45,16.25-6.12,38.44-10,64.64-11.9V62.39a35.45,35.45,0,0,1-14.16-28.3h0c0-18,16.25-34.09,36.35-34.09Zm72.69,64.32L460.87,145H463L460.87,147,251,241.85h-2.09a18,18,0,0,1-14.14-6.11c-4-3.86-6-8-8.05-16.08h0V88.76c0-10.29,4-16.39,8.05-20.25,4-4.18,10.12-4.18,16.23-4.18ZM190.4,497.85c36.33,0,68.5-6.11,90.68-14.16s34.42-18,34.42-30.22c0-10-12.23-20.26-34.42-28.31A334.19,334.19,0,0,0,208.57,411v36.34c0,6.12-1.94,12.22-6.13,14.15-4,4.18-10.12,6.12-16.06,6.12h-4a31.25,31.25,0,0,1-18.17-6.12c-4-3.85-6.11-10-6.11-18V413.27c-24.12,1.93-44.38,6.12-60.46,11.9-20.26,8-32.33,18.33-32.33,28.31,0,12.21,12.07,22.19,32.33,30.22,24.12,8.05,56.44,14.16,92.79,14.16Z" fill="#12CCE5" fill-rule="evenodd"/></svg>